<svg id="Layer_1" data-name="Layer 1" xmlns="http://www.w3.org/2000/svg" viewBox="0 0 841.89 595.28"><defs><style>.cls-1{fill:#009fe3;}.cls-2{fill:#123274;}</style></defs><title>vtb120-028v01-o_logotypes svg</title><path class="cls-1" d="M173.32,241.15h-126l-9.06,25h126Zm13.62-37.46H61l-9.08,25h126Zm4.54-12.48H65.5l9.09-25h126Z"/><path class="cls-2" d="M303.68,273.69v.5a52.17,52.17,0,0,1,14,8c8.82,7.28,12.69,16.86,12.69,29.31,0,20.47-10.87,35.23-28.75,39.9-5.45,1.55-11.14,2.08-21.78,2.08H225.67V203.7h48c9.87,0,16.59.51,22.56,2.07,17.38,4.66,28.76,16.59,28.76,35.5,0,10.12-3.61,18.68-9.58,24.39a36.13,36.13,0,0,1-11.68,8m-47.93,15.82V328.9h20.73c6.22,0,11.92-.52,16.06-4.42s6-8.81,6-15.28a21.43,21.43,0,0,0-3.89-13c-4.42-5.44-9.86-6.72-19.2-6.72Zm-.26-25.94h16.84c5.19,0,7.79,0,10.37-.77,7-2.09,11.42-8.31,11.42-16.87,0-10.1-4.69-14.49-11.42-16.58-2.85-.77-5.71-1-11.41-1h-15.8Zm120,89.95V228.85H332.22V203.7H452.48L444,228.85H405.56V353.52Zm86.3,0V203.7h97.48l-8.57,25.15H491.63V262h24.1c19.43,0,29.55,4.66,36.56,10.62,5.44,4.67,14.78,15,14.78,35.51,0,20.23-9.6,31.37-17.64,37.07-9.32,6.49-19.17,8.3-39.14,8.3Zm29.82-25.14h22.54c8.57,0,13.74-2.08,17.38-6.75,1.82-2.32,4.39-6.48,4.39-14.26s-2.57-13.2-7.76-17.1c-3.11-2.34-7.26-3.63-14.27-3.63H491.63Z"/><path class="cls-1" d="M526.24,327.23s.32-5.82,22.56-6.46c23.83-.66,46.06-.95,46.06-.95s-35.76,20-45.75,25.44a128.42,128.42,0,0,0-15.79,10s3.88,10.3,8.7,6.77,30.92-18,44.78-4.84,6.11,30.93-19.66,43.8-47,6.78-50.56,1.62-1.61-13.85-4.85-10-1.26,31.57,26.75,35.76,56-11.92,67-32.86-.64-42.83-14.17-48.64-22.54-4.18-22.54-4.18,3.23-3.56,16.75-9.34,25.12-11,29-17.08,2.58-20.94-.33-21.59-1.28,2.59-9.34,2.59-44.66-4.47-65.38.64c-26.1,6.45-13.21,29.32-13.21,29.32"/><path class="cls-1" d="M679.35,409.8a0,0,0,0,1,0,0l-.17-.06c-2.6-.35-5.19-.78-7.78-1.22a75.79,75.79,0,0,1-10.91,7.9c-25.61,15.22-36-7-25.61-44.93S681,314,681,314l-4.08-8.86s9.48-8.3,19.55-5.33c9.65,2.83,20.23,16.49,10.08,46.2-.87,2.52-1.72,5-2.6,7.44a7.17,7.17,0,0,1,1.75.54c2.48,1.12,4.86,2.34,7.26,3.61.47-1.17.94-2.32,1.38-3.5,15.94-41.8-2.16-65.71-18.61-66.68a30.82,30.82,0,0,0-25.36,10.87s-4.84-9.66-14.26-3.14S623,321.75,615.3,365.48s12.82,62.81,34.08,61.6c9.45-.54,20.2-6.76,30.6-17.18l-.63-.1"/><path class="cls-2" d="M525.72,326.36s.25-.95,4.13-2.56a39.47,39.47,0,0,1,5.22-1.54s3.47.26,2.56,1-8.76,3.28-8.76,3.28l-2.43,1.58Z"/><path class="cls-1" d="M709,401.11c13.61,8.49,26.73-8,21.68-9.71-.89-.31-5.95,8.5-12,7.38-4.53-.83-5.13-6-4.49-11.32a62.33,62.33,0,0,0,10.18-6.38c14.74-11.17,13.33-20.49,9.12-23.66-3.21-2.42-11.24-4.35-21.07,6-11,11.61-14.19,31-3.41,37.69m20.77-39.94c3.17,1-.28,11.6-14.46,20.59.52-2,1.08-3.65,1.46-4.73,2-5.43,9.2-17.09,13-15.86"/><path class="cls-1" d="M656.86,378.71c-2.06.25-8.76,15.42-1.81,22.27,5.8,5.72,12.58,1.57,18.43-7.85,4.25-6.82,11.87-20.42,15.92-26.47-1.28,4.27-2.73,9.19-4,13.67-3.18,11.07-1.88,18.47,1.41,21.17s7,1.89,6,.71-.34-5.88,1.67-14.46S702.67,366.91,702,362s-9.18-6.47-9.18-6.47-5.43,4.85-14.24,20.74C669,393.43,664,399.77,662.61,399.07s-.2-8.06,4.19-13.78c.83-1.05-3.9-7.32-9.94-6.58"/><path class="cls-1" d="M803.61,362.57c-.44-6.5-7.93-7.43-11.9-5.87-2.56,1-6.93,2.59-13,11.83-.14.23-.59.94-1.05,1.65,1-3.09,1.58-5.74,1.45-7.61-.43-6.5-7.92-7.43-11.88-5.87-2.67,1.07-7.36,2.73-13.86,13.21v0c1.69-4.69,2.85-8.21,2.49-9.35-1.11-3.35-9.29-4.72-9.29-4.72-2.18,4.22-5.39,13.5-7.68,22.49-.55,1.94-2.31,8.32-3.07,12.43-1.06,5.73-1.13,9.11,1.18,11,2,1.62,5.15,1.77,7,1.77s2.36-.42,1.85-1.08c-.65-.81-1-3.36.07-7.95,0,0,0-.06,0-.09a.29.29,0,0,0,0-.1c.14-.5.32-1,.5-1.59,0,0,0,0,0-.06.19-.58.4-1.21.63-1.86v0c.24-.65.51-1.35.78-2.07a0,0,0,0,1,0,0c.28-.72.59-1.49.95-2.27a0,0,0,0,1,0,0c.33-.77.7-1.58,1.11-2.42l0,0c.4-.84.82-1.69,1.29-2.57.17-.31.34-.63.53-.95,5.2-9.4,8.71-13.55,11.61-15.29s4.8.44,3.21,4.66c-1.19,3.15-3.42,9.35-4.35,12.59-3.17,11-4.33,16.73-1,19.4,2,1.62,5.13,1.77,6.95,1.77s2.34-.42,1.83-1.08-.67-2.54-.27-5.55a63.59,63.59,0,0,1,6.51-16.5c5.19-9.4,8.71-13.55,11.61-15.29s4.8.44,3.2,4.66c-1.19,3.15-3.4,9.35-4.34,12.59-3.15,11-4.32,16.73-1,19.4,2,1.62,5.16,1.77,7,1.77s2.36-.42,1.83-1.08c-.88-1.1-.66-5.67,1.34-13.31.2-.67.4-1.32.55-1.89,2.62-9.13,7.55-19.7,7.24-24.65"/></svg>