<svg width="124" height="56" viewBox="0 0 124 56" fill="none" xmlns="http://www.w3.org/2000/svg">
<path d="M41.5595 32.8807C41.5595 33.2633 41.4455 33.6374 41.2318 33.9556C41.0182 34.2737 40.7145 34.5217 40.3592 34.6681C40.0039 34.8146 39.6129 34.8529 39.2357 34.7782C38.8586 34.7036 38.5121 34.5193 38.2401 34.2487C37.9682 33.9782 37.783 33.6334 37.708 33.2581C37.633 32.8828 37.6715 32.4938 37.8186 32.1403C37.9658 31.7868 38.215 31.4846 38.5348 31.2721C38.8546 31.0595 39.2305 30.946 39.6151 30.946C40.1308 30.946 40.6253 31.1498 40.99 31.5127C41.3546 31.8755 41.5595 32.3676 41.5595 32.8807ZM65.0612 9.27084C66.8372 10.264 60.3557 20.2342 50.1345 25.5191C49.3956 28.6727 50.209 30.7783 50.9025 30.6784C53.0382 30.0335 52.147 24.784 52.147 24.784L56.2886 22.7944C57.8247 27.5764 55.3164 34.6187 50.5007 34.7993C44.3757 34.6026 44.7743 27.686 44.7743 27.686L41.135 28.7791L42.159 26.0189C42.159 26.0189 44.5183 25.416 45.0109 25.2773C49.1687 11.312 62.1478 7.65859 65.0677 9.27084H65.0612ZM51.1326 22.7461C53.5372 22.2656 62.9548 12.289 60.9974 12.4663C57.1085 13.4337 50.3548 22.3075 51.1326 22.7461ZM58.7451 22.0238V24.0133C58.7451 24.0133 61.3765 22.3108 61.5742 22.6235C61.6455 23.5199 58.3335 31.0814 58.2525 32.2261C58.1909 32.7807 58.4858 34.8057 60.2261 34.8057C60.9054 34.7872 61.5711 34.6117 62.1705 34.293C64.7372 32.9033 67.4691 30.2302 67.4691 30.2302C67.4691 30.2302 66.821 31.9133 67.1029 33.2547C67.3848 34.5961 68.8043 35.1443 70.3242 34.5929C71.8441 34.0415 73.8015 32.6969 74.5371 31.8037C74.4237 31.5135 73.9992 30.1657 73.9992 30.1657C73.9992 30.1657 72.6381 31.4393 72.3075 31.2781C71.977 31.1169 76.2871 18.522 76.2871 18.522H71.5297C70.8168 21.7239 66.727 30.0754 63.9562 30.4365C63.0099 30.3688 67.3038 20.8339 67.4626 19.7569C67.7867 18.3478 66.727 17.6997 65.4631 17.9899C64.1344 18.4381 58.7386 22.0238 58.7386 22.0238H58.7451ZM87.6588 18.522H92.1634L84.8621 41.3192H80.3089C80.3089 41.3192 82.869 32.5518 83.4102 31.8618C79.7839 36.4212 76.5626 34.6123 75.989 30.846C75.4705 26.2995 77.133 22.0141 81.038 19.5022C84.7713 17.1838 86.5829 18.9379 87.1047 19.8247C87.1986 19.6118 87.6588 18.5123 87.6588 18.5123V18.522ZM85.7889 22.8815C85.8246 20.9694 84.4926 20.9952 83.4167 22.1979C83.0116 22.6622 80.8079 25.977 80.8857 28.6308C81.0315 30.888 82.0362 30.2882 82.6746 29.9206C84.175 28.8952 85.6463 25.0645 85.7889 22.8686V22.8815ZM17.7045 34.8057C21.749 34.8057 26.6716 23.1653 28.8202 18.767C29.2318 17.9061 29.4684 17.2837 29.7017 17.258C30.4633 18.0609 23.3855 30.5752 27.31 33.9706C27.6957 34.3434 28.1765 34.6043 28.7003 34.7251C32.4855 35.4829 35.1429 30.7138 37.4146 28.1955L36.2739 27.0637C35.5156 27.9408 34.6341 30.0851 34.0054 28.95C32.748 26.9379 40.4123 5.80127 40.4123 5.80127H33.1952C32.4401 7.0556 24.4031 25.1773 22.8832 25.4321C22.6304 25.5546 22.5073 25.3031 22.5073 25.0484C23.3855 18.2769 25.2003 12.3438 27.3489 5.80127H20.1383C15.9675 17.3676 15.9254 17.5095 12.1402 25.1773C10.2476 28.705 7.46383 30.9589 9.4828 25.4321H2.9171C1.65321 28.8243 1.12173 34.422 5.1856 34.7993C5.26662 34.7993 5.35088 34.7993 5.42866 34.7993C9.9203 34.7993 14.7976 23.4006 15.2967 22.9105C14.9207 26.8089 13.1286 31.4651 15.4198 33.8416C16.0207 34.4454 16.8345 34.7924 17.6883 34.809L17.7045 34.8057ZM96.5611 30.7171C98.1815 33.0484 102.757 28.6695 102.757 28.6695L103.817 30.2817C103.817 30.2817 100.217 34.8896 96.0393 34.7961C94.0787 34.7574 93.4208 34.1963 92.1505 33.1838C91.7421 33.4643 90.2352 34.3608 90.2352 34.3608L89.4445 32.2261C89.4445 32.2261 90.582 31.6135 91.1167 31.2942C89.8917 20.5502 100.69 16.6259 104.627 18.8218C107.294 20.4341 105.217 26.1769 96.5546 30.7138L96.5611 30.7171ZM96.2662 28.7372C100.936 25.0548 102.923 21.5981 101.937 20.9178C100.952 20.2374 98.943 21.9432 97.7051 24.1423C96.4671 26.3414 96.0847 28.4244 96.2662 28.7469V28.7372ZM105.907 32.0681C106.196 32.7356 107.353 34.7445 109.845 34.8154C110.898 34.8476 112.045 34.493 113.795 33.545C119.658 30.3656 121.097 22.4107 120.993 20.9081C120.967 17.6836 118.724 18.1511 118.329 18.2672C115.195 19.312 112.454 23.2104 112.454 23.2104L113.815 24.5647C113.815 24.5647 115.111 22.1205 116.346 22.1205C117.58 22.1205 115.617 26.8863 115.299 27.6022C113.679 31.1782 110.71 32.7195 109.903 29.5562C108.882 24.3648 116.009 18.7638 116.009 18.7638H111.196C111.196 18.7638 103.094 25.0451 105.93 32.0778" fill="white"/>
<path d="M116.128 48.1724H116.932V44.7028L118.748 48.2074H119.333L121.179 44.6646V48.1692H122.002V43.7087H120.917L119.091 47.2134L117.265 43.7087H116.144L116.128 48.1724ZM112.534 47.5352C112.208 47.5537 111.883 47.4762 111.602 47.3128C111.321 47.1494 111.097 46.9075 110.959 46.6185C110.821 46.3295 110.775 46.0068 110.827 45.6919C110.879 45.3771 111.026 45.0847 111.25 44.8525C111.475 44.6204 111.765 44.4593 112.084 44.3899C112.403 44.3206 112.737 44.3463 113.041 44.4636C113.345 44.581 113.606 44.7847 113.79 45.0483C113.974 45.3119 114.072 45.6233 114.073 45.9422C114.086 46.147 114.056 46.3523 113.985 46.5453C113.914 46.7384 113.803 46.9151 113.658 47.0645C113.514 47.2139 113.34 47.3328 113.146 47.4137C112.953 47.4947 112.745 47.536 112.534 47.5352ZM112.534 43.61C112.059 43.6112 111.595 43.7498 111.2 44.0083C110.805 44.2667 110.498 44.6334 110.317 45.0619C110.136 45.4905 110.09 45.9618 110.183 46.4163C110.277 46.8707 110.506 47.2879 110.843 47.6152C111.179 47.9426 111.608 48.1653 112.074 48.2552C112.54 48.3452 113.023 48.2984 113.462 48.1207C113.901 47.943 114.276 47.6425 114.54 47.257C114.804 46.8715 114.945 46.4184 114.945 45.9549C114.951 45.6447 114.893 45.3366 114.774 45.0489C114.655 44.7612 114.478 44.5 114.252 44.2809C114.027 44.0619 113.759 43.8895 113.464 43.7742C113.168 43.6589 112.852 43.603 112.534 43.61ZM107.931 47.4332H105.445C105.696 47.0541 105.807 46.4774 105.938 45.4419L106.059 44.4479H107.931V47.4332ZM104.834 49.5201V48.1724H108.859V49.5201H109.61V47.4332H108.764V43.7087H105.363L105.17 45.3814C105.04 46.4933 104.899 47.07 104.615 47.4332H104.066V49.5201H104.834ZM100.773 45.8147C100.227 45.8147 99.9301 45.5439 99.9301 45.101C99.9301 44.6582 100.227 44.4479 100.773 44.4479H102.351V45.8147H100.773ZM103.194 48.1724V43.7119H100.672C99.5413 43.7119 99.0382 44.381 99.0382 45.1042C99.0154 45.4182 99.1127 45.7293 99.3111 45.9776C99.5096 46.2258 99.7952 46.3936 100.113 46.4487L98.8977 48.1756H99.8778L100.992 46.5571H102.354V48.1756L103.194 48.1724ZM96.0064 42.5681C96.8526 42.5681 97.2675 42.9568 97.2675 43.6259C97.2675 44.2408 96.8526 44.6837 96.0064 44.6837H93.4582V42.5681H96.0064ZM92.5597 48.1724H93.4582V45.4961H95.9803C97.4341 45.4961 98.1953 44.7378 98.1953 43.6068C98.1953 42.4757 97.4341 41.7525 95.9803 41.7525H92.5565L92.5597 48.1724ZM85.7611 48.8096H86.5223L88.8746 41.3192H88.1134L85.7611 48.8096ZM80.2072 47.5352C79.8808 47.5537 79.5562 47.4762 79.2754 47.3128C78.9946 47.1494 78.7705 46.9075 78.6323 46.6185C78.494 46.3295 78.4478 46.0068 78.4997 45.6919C78.5516 45.3771 78.6992 45.0847 78.9235 44.8525C79.1477 44.6204 79.4382 44.4593 79.7573 44.3899C80.0765 44.3206 80.4097 44.3463 80.7137 44.4636C81.0178 44.581 81.2787 44.7847 81.4627 45.0483C81.6468 45.3119 81.7454 45.6233 81.746 45.9422C81.7594 46.147 81.7295 46.3523 81.6582 46.5453C81.5869 46.7384 81.4756 46.9151 81.3313 47.0645C81.187 47.2139 81.0128 47.3328 80.8194 47.4137C80.626 47.4947 80.4177 47.536 80.2072 47.5352ZM80.2072 43.61C79.7319 43.6112 79.2677 43.7498 78.8731 44.0083C78.4786 44.2667 78.1714 44.6334 77.9904 45.0619C77.8094 45.4905 77.7627 45.9618 77.8563 46.4163C77.9498 46.8707 78.1793 47.2879 78.5158 47.6152C78.8524 47.9426 79.2808 48.1653 79.7471 48.2552C80.2133 48.3452 80.6964 48.2984 81.1354 48.1207C81.5744 47.943 81.9496 47.6425 82.2135 47.257C82.4774 46.8715 82.6183 46.4184 82.6183 45.9549C82.6245 45.6447 82.5664 45.3366 82.4473 45.0489C82.3283 44.7612 82.1508 44.5 81.9256 44.2809C81.7004 44.0619 81.432 43.8895 81.1367 43.7742C80.8414 43.6589 80.5252 43.603 80.2072 43.61ZM72.9382 45.9549C72.956 45.6618 73.0615 45.3801 73.2416 45.1448C73.4216 44.9094 73.6684 44.7307 73.9515 44.6305C74.2345 44.5303 74.5415 44.5132 74.8344 44.5811C75.1273 44.6491 75.3934 44.7992 75.5999 45.013C75.8064 45.2267 75.9442 45.4947 75.9962 45.784C76.0483 46.0732 76.0125 46.3709 75.893 46.6405C75.7736 46.9101 75.5759 47.1397 75.3242 47.3009C75.0726 47.4622 74.778 47.548 74.4769 47.5479C74.2659 47.5507 74.0566 47.5106 73.8624 47.4303C73.6681 47.35 73.493 47.2312 73.3483 47.0814C73.2037 46.9316 73.0925 46.7541 73.0219 46.5602C72.9512 46.3663 72.9227 46.1601 72.9382 45.9549ZM72.9578 47.4619C73.1387 47.7295 73.3875 47.947 73.68 48.0932C73.9725 48.2395 74.2988 48.3095 74.6272 48.2966C75.8491 48.2966 76.8782 47.4364 76.8782 45.9549C76.8782 44.4734 75.8491 43.61 74.6272 43.61C74.2938 43.5979 73.9631 43.673 73.6695 43.8277C73.376 43.9823 73.1302 44.2108 72.9578 44.4893V43.7087H72.1214V50.1987H72.9578V47.4619ZM68.4722 48.1851H69.3151V44.4479H71.1936V43.7087H66.6198V44.4479H68.4754L68.4722 48.1851ZM65.1137 45.1138H65.9664C65.9011 44.7793 65.4273 43.61 63.7775 43.61C63.1556 43.6323 62.5667 43.889 62.1348 44.326C61.7029 44.7631 61.4616 45.3464 61.4616 45.9533C61.4616 46.5603 61.7029 47.1436 62.1348 47.5806C62.5667 48.0176 63.1556 48.2743 63.7775 48.2966C65.411 48.2966 65.9011 47.1019 65.9566 46.7928H65.1202C64.9962 47.0317 64.8026 47.2296 64.5637 47.3616C64.3249 47.4937 64.0514 47.554 63.7775 47.5352C62.9248 47.5352 62.3204 46.8311 62.3204 45.9422C62.3204 45.0533 62.9248 44.3491 63.7677 44.3491C64.0399 44.3356 64.3103 44.3983 64.5471 44.5299C64.7838 44.6614 64.9771 44.8563 65.1039 45.0915L65.1137 45.1138ZM56.7012 45.8752C57.3546 45.8752 57.7303 46.1652 57.7303 46.6367C57.7303 47.1688 57.3677 47.4237 56.7012 47.4237H55.3944V45.8752H56.7012ZM59.3899 48.1628H60.2328V43.7024H59.3899V48.1628ZM56.8188 45.1425H55.4303V43.7087H54.5842V48.1692H56.8188C58.0799 48.1692 58.6385 47.43 58.6385 46.6431C58.6385 45.7924 58.0799 45.1425 56.809 45.1425H56.8188ZM51.0362 45.1871C51.9543 45.1871 52.4084 45.6395 52.4084 46.2799C52.4084 46.9681 51.9543 47.3568 51.0362 47.3568H48.6513V45.1871H51.0362ZM51.0068 44.3746H48.6513V42.5936H52.8135V41.7684H47.7627V48.1883H51.0068C52.5358 48.1883 53.3329 47.5033 53.3329 46.3181C53.3329 45.1329 52.5358 44.4065 51.0068 44.4065V44.3746ZM40.9674 48.8351H41.7253L44.0775 41.3192H43.3163L40.9674 48.8351ZM33.2344 48.1979H34.0773V46.3022H36.6451V48.1979H37.488V43.7374H36.6451V45.563H34.0773V43.7087H33.2344V48.1979ZM27.3701 48.1979H28.2163L30.8756 44.8079V48.1979H31.7185V43.7374H30.8756L28.2163 47.0987V43.7087H27.3701V48.1979ZM29.559 42.3674C29.4765 42.3665 29.3952 42.3488 29.3201 42.3156C29.245 42.2824 29.1778 42.2342 29.1228 42.1743C29.0678 42.1144 29.0262 42.044 29.0006 41.9675C28.975 41.8911 28.966 41.8102 28.9742 41.7302V41.5741H28.2718V41.7461C28.263 41.9165 28.2898 42.0869 28.3506 42.2468C28.4114 42.4068 28.5049 42.553 28.6255 42.6767C28.746 42.8003 28.8911 42.8987 29.0518 42.966C29.2126 43.0332 29.3857 43.0679 29.5606 43.0679C29.7356 43.0679 29.9087 43.0332 30.0694 42.966C30.2302 42.8987 30.3753 42.8003 30.4958 42.6767C30.6163 42.553 30.7099 42.4068 30.7707 42.2468C30.8315 42.0869 30.8583 41.9165 30.8495 41.7461V41.5741H30.1438V41.7302C30.1525 41.8103 30.1438 41.8913 30.1184 41.968C30.093 42.0447 30.0515 42.1153 29.9964 42.1753C29.9413 42.2354 29.8739 42.2835 29.7986 42.3166C29.7232 42.3497 29.6416 42.367 29.559 42.3674ZM25.0277 45.9676C25.0277 46.8534 24.4331 47.5607 23.5445 47.5607C23.1474 47.5146 22.7815 47.3282 22.516 47.0366C22.2505 46.7451 22.1039 46.3687 22.1039 45.9788C22.1039 45.5889 22.2505 45.2125 22.516 44.921C22.7815 44.6294 23.1474 44.443 23.5445 44.3969C24.4331 44.3969 25.0277 45.0851 25.0277 45.9899V45.9676ZM25.0081 47.4523V48.2202H25.851V43.7597H25.0081V44.4989C24.8415 44.2251 24.6011 44.0011 24.3131 43.8511C24.0252 43.7011 23.7006 43.631 23.3746 43.6482C22.1723 43.6482 21.1432 44.5371 21.1432 45.9931C21.1432 47.4492 22.1723 48.3349 23.3746 48.3349C23.704 48.3522 24.0318 48.279 24.3206 48.1235C24.6094 47.9681 24.8476 47.7366 25.0081 47.4555V47.4523ZM16.2591 46.2353C16.1545 47.258 16.0271 47.5479 15.3966 47.5479H15.2855V48.2871H15.5338C16.5139 48.2871 16.87 47.6658 17.0105 46.2894L17.1836 44.4989H19.0752V48.2234H19.9214V43.7629H16.5074L16.2591 46.2353ZM10.0779 48.2234H10.9208V46.3277H13.4887V48.2234H14.3479V43.7629H13.505V45.5885H10.9371V43.7087H10.0943L10.0779 48.2234ZM5.40284 47.5192C3.91963 47.5192 2.92646 46.4169 2.92646 45.015C2.91437 44.6907 2.96944 44.3673 3.08837 44.0642C3.20729 43.7612 3.38764 43.4845 3.61863 43.2509C3.84963 43.0173 4.12653 42.8315 4.4328 42.7046C4.73908 42.5777 5.06844 42.5123 5.40121 42.5123C5.73399 42.5123 6.06334 42.5777 6.36962 42.7046C6.67589 42.8315 6.95279 43.0173 7.18379 43.2509C7.41478 43.4845 7.59513 43.7612 7.71406 44.0642C7.83298 44.3673 7.88805 44.6907 7.87596 45.015C7.87596 46.3978 6.89586 47.5192 5.40284 47.5192ZM5.40284 48.3349C6.07613 48.3349 6.7343 48.1402 7.29412 47.7754C7.85394 47.4106 8.29027 46.8921 8.54792 46.2855C8.80558 45.6788 8.87299 45.0113 8.74164 44.3674C8.61029 43.7234 8.28607 43.1318 7.80998 42.6675C7.3339 42.2032 6.72733 41.8871 6.06697 41.759C5.40662 41.6309 4.72215 41.6966 4.10011 41.9479C3.47807 42.1991 2.94641 42.6247 2.57235 43.1706C2.19829 43.7166 1.99863 44.3584 1.99863 45.015C1.99021 45.4533 2.0725 45.8886 2.2406 46.2951C2.40869 46.7016 2.65913 47.0709 2.97694 47.3808C3.29474 47.6907 3.67338 47.935 4.09021 48.0989C4.50703 48.2628 4.95348 48.3431 5.40284 48.3349Z" fill="white"/>
</svg>
